<svg width="139" height="193" viewBox="0 0 139 193" fill="none" xmlns="http://www.w3.org/2000/svg">
<path d="M106 100.5V124" stroke="black"/>
<path d="M87.2518 20H21V192.5H0V0H87.2518C127.453 0.8 138.501 33 139 49V53.6914V75.8171C138.182 104.337 121.686 118.085 105.774 123.883V100.791C115.561 93.3036 118.762 82.1495 119 75.8171V53.6914C117.4 28.3474 97.1678 20.6705 87.2518 20Z" fill="#3DFFFF"/>
<path d="M48.81 73V43.3L50.745 45.415H41.7V41.5H53.265V73H48.81ZM80.6753 73.36C78.2153 73.36 76.0103 72.73 74.0603 71.47C72.1403 70.21 70.6103 68.38 69.4703 65.98C68.3603 63.58 67.8053 60.67 67.8053 57.25C67.8053 53.83 68.3603 50.92 69.4703 48.52C70.6103 46.12 72.1403 44.29 74.0603 43.03C76.0103 41.77 78.2153 41.14 80.6753 41.14C83.1053 41.14 85.2953 41.77 87.2453 43.03C89.1953 44.29 90.7253 46.12 91.8353 48.52C92.9453 50.92 93.5003 53.83 93.5003 57.25C93.5003 60.67 92.9453 63.58 91.8353 65.98C90.7253 68.38 89.1953 70.21 87.2453 71.47C85.2953 72.73 83.1053 73.36 80.6753 73.36ZM80.6753 69.355C82.3253 69.355 83.7653 68.905 84.9953 68.005C86.2553 67.105 87.2303 65.755 87.9203 63.955C88.6403 62.155 89.0003 59.92 89.0003 57.25C89.0003 54.58 88.6403 52.345 87.9203 50.545C87.2303 48.745 86.2553 47.395 84.9953 46.495C83.7653 45.595 82.3253 45.145 80.6753 45.145C79.0253 45.145 77.5703 45.595 76.3103 46.495C75.0503 47.395 74.0603 48.745 73.3403 50.545C72.6503 52.345 72.3053 54.58 72.3053 57.25C72.3053 59.92 72.6503 62.155 73.3403 63.955C74.0603 65.755 75.0503 67.105 76.3103 68.005C77.5703 68.905 79.0253 69.355 80.6753 69.355ZM56.37 117.36C53.91 117.36 51.705 116.73 49.755 115.47C47.835 114.21 46.305 112.38 45.165 109.98C44.055 107.58 43.5 104.67 43.5 101.25C43.5 97.83 44.055 94.92 45.165 92.52C46.305 90.12 47.835 88.29 49.755 87.03C51.705 85.77 53.91 85.14 56.37 85.14C58.8 85.14 60.99 85.77 62.94 87.03C64.89 88.29 66.42 90.12 67.53 92.52C68.64 94.92 69.195 97.83 69.195 101.25C69.195 104.67 68.64 107.58 67.53 109.98C66.42 112.38 64.89 114.21 62.94 115.47C60.99 116.73 58.8 117.36 56.37 117.36ZM56.37 113.355C58.02 113.355 59.46 112.905 60.69 112.005C61.95 111.105 62.925 109.755 63.615 107.955C64.335 106.155 64.695 103.92 64.695 101.25C64.695 98.58 64.335 96.345 63.615 94.545C62.925 92.745 61.95 91.395 60.69 90.495C59.46 89.595 58.02 89.145 56.37 89.145C54.72 89.145 53.265 89.595 52.005 90.495C50.745 91.395 49.755 92.745 49.035 94.545C48.345 96.345 48 98.58 48 101.25C48 103.92 48.345 106.155 49.035 107.955C49.755 109.755 50.745 111.105 52.005 112.005C53.265 112.905 54.72 113.355 56.37 113.355ZM86.4747 117V87.3L88.4097 89.415H79.3647V85.5H90.9297V117H86.4747ZM48.81 161V131.3L50.745 133.415H41.7V129.5H53.265V161H48.81ZM80.6753 161.36C78.2153 161.36 76.0103 160.73 74.0603 159.47C72.1403 158.21 70.6103 156.38 69.4703 153.98C68.3603 151.58 67.8053 148.67 67.8053 145.25C67.8053 141.83 68.3603 138.92 69.4703 136.52C70.6103 134.12 72.1403 132.29 74.0603 131.03C76.0103 129.77 78.2153 129.14 80.6753 129.14C83.1053 129.14 85.2953 129.77 87.2453 131.03C89.1953 132.29 90.7253 134.12 91.8353 136.52C92.9453 138.92 93.5003 141.83 93.5003 145.25C93.5003 148.67 92.9453 151.58 91.8353 153.98C90.7253 156.38 89.1953 158.21 87.2453 159.47C85.2953 160.73 83.1053 161.36 80.6753 161.36ZM80.6753 157.355C82.3253 157.355 83.7653 156.905 84.9953 156.005C86.2553 155.105 87.2303 153.755 87.9203 151.955C88.6403 150.155 89.0003 147.92 89.0003 145.25C89.0003 142.58 88.6403 140.345 87.9203 138.545C87.2303 136.745 86.2553 135.395 84.9953 134.495C83.7653 133.595 82.3253 133.145 80.6753 133.145C79.0253 133.145 77.5703 133.595 76.3103 134.495C75.0503 135.395 74.0603 136.745 73.3403 138.545C72.6503 140.345 72.3053 142.58 72.3053 145.25C72.3053 147.92 72.6503 150.155 73.3403 151.955C74.0603 153.755 75.0503 155.105 76.3103 156.005C77.5703 156.905 79.0253 157.355 80.6753 157.355Z" fill="#3DFFFF"/>
</svg>
